<?xml version="1.0" encoding="utf-8"?>
<!-- Generator: Adobe Illustrator 25.4.1, SVG Export Plug-In . SVG Version: 6.00 Build 0)  -->
<svg version="1.1" id="レイヤー_1" xmlns="http://www.w3.org/2000/svg" xmlns:xlink="http://www.w3.org/1999/xlink" x="0px"
	 y="0px" viewBox="0 0 263.4 61.3" style="enable-background:new 0 0 263.4 61.3;" xml:space="preserve">
<style type="text/css">
	.st0{fill:#707070;}
	.st1{fill:#FF8B8B;}
	.st2{fill:#A5A5A5;}
</style>
<g id="レイヤー_2_00000053520025931302246360000009117956011311987870_">
	
		<image style="overflow:visible;" width="294" height="93" xlink:href="D4CB57A465D10EC1.png"  transform="matrix(1 0 0 1 -15 -15.67)">
	</image>
	<g>
		<g>
			<g id="レイヤー_1-2_00000127751388626924310890000001302842725548787100_">
				<path class="st0" d="M75,6.5V0.2h27.1v6.4H75z M95.6,61.3V15.1h6.5v46.2H95.6z"/>
				<path class="st0" d="M119.7,26.1v35.2h-6.5V12.6c0-7.7,4.1-12.5,13.4-12.5H146v6.5h-19.3c-5.2,0-7.1,3.2-7.1,7.3v5.7h20v6.5
					L119.7,26.1z"/>
				<path class="st0" d="M172.8,61.3h-5c-13.9,0-20-6.3-20-18.4v-9.3c0-11.5,6.8-18.6,20-18.6h10.4v6.5H168
					c-8.8,0-13.7,4.5-13.7,12.5v8.5c0,7.9,4.5,12.5,13.7,12.5h4.9c9.4,0,13-3.9,13.4-10.4h6.7C192.4,56.2,186.6,61.3,172.8,61.3z"/>
				<path class="st0" d="M201.7,61.3V0.2h6.5v61.2H201.7z"/>
				<path class="st0" d="M225.2,40.8L225.2,40.8l38.1-0.2V34c0-13-6.9-19-20.5-19h-5.1c-12.2,0-20.4,6.6-20.4,18.6v8.9
					c0,11.5,6.1,18.8,20.4,18.8H249v-6.1h-11.2c-8.6,0-13.9-3.5-13.9-12.6v-1.9H225.2z M237.8,21.2h5.1c9,0,14.1,3.2,14.1,12.8v1.5
					l-31.8,0.1h-1.4v-2C223.9,24.5,229.7,21.2,237.8,21.2z"/>
				<path class="st1" d="M52.5,6.5h13.8V0H52.5C39.9,0,32.1,5.3,29.3,15.3c2.2,0.3,4.3,0.8,6.3,1.7C37.8,10.3,43.2,6.5,52.5,6.5z"/>
				<path class="st2" d="M38.6,34v8.5c0.1,2.2-0.4,4.3-1.3,6.3c1.4,2,3.3,3.6,5.6,4.5c1.6-3.2,2.4-6.8,2.2-10.3v-9.3
					c0-11.5-6.8-18.6-20-18.6H14.7v6.5h10.2C33.7,21.5,38.6,26,38.6,34z"/>
				<path class="st2" d="M29.4,54.5c-1.5,0.3-3,0.5-4.5,0.4H20c-9.4,0-13-3.9-13.4-10.4H0c0.5,11.6,6.2,16.7,20,16.7h5
					c3.3,0.1,6.6-0.4,9.7-1.4C32.6,58.5,30.8,56.6,29.4,54.5z"/>
				<path class="st1" d="M53.3,29.6v6.2h22.5v2.8c-0.6,9.3-5.3,15-14.7,16l-3.1,0.2h-5.6c-12.6,0-18-5.6-18-18.2v-7.7
					c-1.2-2.2-3.3-3.5-6.4-4v11.8c0,16.2,6.8,24.7,24.4,24.7h5.6c5.2,0,10.3-0.9,14.4-3.5c0.2-0.1,0.3-0.2,0.5-0.3s0.4-0.3,0.6-0.5
					c5.7-4.1,8.6-11.1,8.6-20.6v-6.9H53.3z"/>
			</g>
		</g>
	</g>
</g>
</svg>
