<?xml version="1.0" encoding="utf-8"?>
<!-- Generator: Adobe Illustrator 25.4.1, SVG Export Plug-In . SVG Version: 6.00 Build 0)  -->
<svg version="1.1" id="_x31_0" xmlns="http://www.w3.org/2000/svg" xmlns:xlink="http://www.w3.org/1999/xlink" x="0px" y="0px"
	 viewBox="0 0 502.7 512.1" style="enable-background:new 0 0 502.7 512.1;" xml:space="preserve">
<style type="text/css">
	.st0{fill:#4B4B4B;}
</style>
<g>
	<g>
		<path class="st0" d="M502.7,126.7l-369-29.2l-5.6-31.9c-5.2-29-28.3-51.6-57.5-55.9L5,0L0,33.7l65.5,9.7
			c14.7,2.2,26.3,13.5,28.9,28.1l52.9,300.1c5,28.2,29.4,48.7,58,48.7H435l6.8-34.1H205.5c-12,0-22.4-8.7-24.5-20.5l-7.4-42h283.6
			L502.7,126.7z"/>
		<path class="st0" d="M218.5,438.7c-20.3,0-36.7,16.4-36.7,36.7c0,20.3,16.4,36.7,36.7,36.7s36.7-16.4,36.7-36.7
			S238.8,438.7,218.5,438.7z"/>
		<path class="st0" d="M381.4,438.7c-20.3,0-36.7,16.4-36.7,36.7c0,20.3,16.4,36.7,36.7,36.7c20.3,0,36.7-16.4,36.7-36.7
			S401.7,438.7,381.4,438.7z"/>
	</g>
</g>
</svg>
