<svg xmlns="http://www.w3.org/2000/svg" viewBox="0 0 230 230"><defs><style>.cls-1{fill:#fff0dc;}.cls-2{fill:#fcc68b;}</style></defs><g id="レイヤー_2" data-name="レイヤー 2"><g id="レイヤー_1-2" data-name="レイヤー 1"><circle class="cls-1" cx="115" cy="115" r="115"/><path class="cls-2" d="M152.18,114.14c-4.53-5.84,1.82-14.52-2.41-20S135.54,92.74,131,86.91s-.22-12.32-6-19.72a7.83,7.83,0,0,0-6.38-3.37c-4.07,0-7.62,3-7.62,3l-46,75.73-17.81,2.56A6.59,6.59,0,0,0,43,155.71l19,24.45a6.59,6.59,0,0,0,11.19-1.28l7.5-16.23,86-24.22s8.86-6.26,3.12-13.65S156.71,120,152.18,114.14Z"/><path class="cls-2" d="M147.74,74a8.34,8.34,0,1,0-11.69-1.47A8.36,8.36,0,0,0,147.74,74Z"/><path class="cls-2" d="M161.57,100.66a8,8,0,1,0,11.25,1.41A8,8,0,0,0,161.57,100.66Z"/><path class="cls-2" d="M158.43,74.68a8.66,8.66,0,1,0,12.15,1.53A8.66,8.66,0,0,0,158.43,74.68Z"/><path class="cls-2" d="M187.18,91.31a5.77,5.77,0,1,0-1,8.09A5.76,5.76,0,0,0,187.18,91.31Z"/><path class="cls-2" d="M168.23,65.36a7.37,7.37,0,1,0-10.35-1.29A7.37,7.37,0,0,0,168.23,65.36Z"/><path class="cls-2" d="M150.47,54a4.8,4.8,0,1,0-6.75-.84A4.79,4.79,0,0,0,150.47,54Z"/><path class="cls-2" d="M184.15,79a6.41,6.41,0,1,0-9-1.12A6.4,6.4,0,0,0,184.15,79Z"/></g></g></svg>