<?xml version="1.0" encoding="utf-8"?>
<!-- Generator: Adobe Illustrator 25.4.1, SVG Export Plug-In . SVG Version: 6.00 Build 0)  -->
<svg version="1.1" id="_x31_0" xmlns="http://www.w3.org/2000/svg" xmlns:xlink="http://www.w3.org/1999/xlink" x="0px" y="0px"
	 viewBox="0 0 450.8 511.9" style="enable-background:new 0 0 450.8 511.9;" xml:space="preserve">
<style type="text/css">
	.st0{fill:#FFFFFF;}
</style>
<g>
	<path class="st0" d="M432,61h-52V47c0-25.9-21.1-47-47-47h-20.8c-25.9,0-47,21.1-47,47v14h-79.7V47c0-25.9-21.1-47-46.9-47h-20.8
		c-25.9,0-47,21.1-47,47v14h-52C8.4,61,0,69.5,0,79.9V493c0,10.5,8.5,18.9,18.8,18.9H432c10.3,0,18.8-8.5,18.8-18.9V79.9
		C450.8,69.5,442.4,61,432,61z M117.8,40.3h20.8c3.6,0,6.6,3.1,6.6,6.7v14v41.2c0,1.6-1.3,3-3,3H114c-1.6,0-3-1.3-3-3V61V47
		C111.1,43.4,114,40.3,117.8,40.3z M312.2,40.3H333c3.8,0,6.7,3.1,6.7,6.7v14v41.2c0,1.6-1.3,3-3.1,3h-28.1c-1.7,0-3.1-1.3-3.1-3V61
		V47C305.5,43.4,308.6,40.3,312.2,40.3z M397.1,182.9v275.4H53.7V182.8h342.5L397.1,182.9z"/>
	<polygon class="st0" points="107.4,273.9 107.4,274.1 147.7,274.1 147.7,233.8 107.4,233.8 107.4,273.8 	"/>
	<rect x="172.6" y="233.8" class="st0" width="40.3" height="40.3"/>
	<rect x="237.9" y="233.8" class="st0" width="40.3" height="40.3"/>
	<polygon class="st0" points="303.1,273.9 303.1,274.1 343.4,274.1 343.4,233.8 303.1,233.8 303.1,273.8 	"/>
	<polygon class="st0" points="107.4,339.4 147.7,339.4 147.7,299.1 107.4,299.1 107.4,339.1 107.4,339.2 107.4,339.2 	"/>
	<rect x="172.6" y="299.1" class="st0" width="40.3" height="40.3"/>
	<rect x="237.9" y="299.1" class="st0" width="40.3" height="40.3"/>
	<polygon class="st0" points="303.1,339.4 343.4,339.4 343.4,299.1 303.1,299.1 303.1,339.1 303.1,339.2 303.1,339.2 	"/>
	<polygon class="st0" points="107.4,404.5 147.7,404.5 147.7,364.2 107.4,364.2 107.4,404.2 107.4,404.4 107.4,404.4 	"/>
	<rect x="172.6" y="364.2" class="st0" width="40.3" height="40.3"/>
	<rect x="237.9" y="364.2" class="st0" width="40.3" height="40.3"/>
	<polygon class="st0" points="303.1,404.5 343.4,404.5 343.4,364.2 303.1,364.2 303.1,404.2 303.1,404.4 303.1,404.4 	"/>
</g>
</svg>
