<svg id="レイヤー_1" data-name="レイヤー 1" xmlns="http://www.w3.org/2000/svg" viewBox="0 0 830.65 179.19"><rect width="5.37" height="179.19"/><rect x="10.75" width="5.37" height="179.19"/><rect x="21.49" width="16.12" height="179.19"/><rect x="42.99" width="10.75" height="179.19"/><rect x="69.85" width="5.37" height="179.19"/><rect x="85.97" width="5.37" height="179.19"/><rect x="102.09" width="16.12" height="179.19"/><rect x="123.59" width="5.37" height="179.19"/><rect x="145.08" width="5.37" height="179.19"/><rect x="155.83" width="10.75" height="179.19"/><rect x="177.32" width="16.12" height="179.19"/><rect x="198.81" width="5.37" height="179.19"/><rect x="220.31" width="5.37" height="179.19"/><rect x="231.05" width="10.75" height="179.19"/><rect x="247.17" width="5.37" height="179.19"/><rect x="257.92" width="5.37" height="179.19"/><rect x="268.66" width="16.12" height="179.19"/><rect x="290.16" width="5.37" height="179.19"/><rect x="306.28" width="16.12" height="179.19"/><rect x="327.77" width="5.37" height="179.19"/><rect x="343.89" width="16.12" height="179.19"/><rect x="365.38" width="5.37" height="179.19"/><rect x="381.5" width="10.75" height="179.19"/><rect x="403" width="10.75" height="179.19"/><rect x="419.12" width="10.75" height="179.19"/><rect x="435.24" width="10.75" height="179.19"/><rect x="456.73" width="16.12" height="179.19"/><rect x="483.6" width="5.37" height="179.19"/><rect x="494.34" width="5.37" height="179.19"/><rect x="505.09" width="5.37" height="179.19"/><rect x="524.62" width="5.37" height="179.19"/><rect x="535.37" width="5.37" height="179.19"/><rect x="556.86" width="5.37" height="179.19"/><rect x="567.61" width="10.75" height="179.19"/><rect x="589.1" width="5.37" height="179.19"/><rect x="605.22" width="10.75" height="179.19"/><rect x="621.34" width="5.37" height="179.19"/><rect x="648.21" width="5.37" height="179.19"/><rect x="669.7" width="10.75" height="179.19"/><rect x="685.82" width="5.37" height="179.19"/><rect x="696.57" width="5.37" height="179.19"/><rect x="712.69" width="16.12" height="179.19"/><rect x="734.18" width="5.37" height="179.19"/><rect x="750.3" width="16.12" height="179.19"/><rect x="771.8" width="5.37" height="179.19"/><rect x="782.54" width="5.37" height="179.19"/><rect x="793.29" width="16.12" height="179.19"/><rect x="819.9" width="10.75" height="179.19"/></svg>