<?xml version="1.0" encoding="utf-8"?>
<!-- Generator: Adobe Illustrator 25.4.1, SVG Export Plug-In . SVG Version: 6.00 Build 0)  -->
<svg version="1.1" id="_x32_" xmlns="http://www.w3.org/2000/svg" xmlns:xlink="http://www.w3.org/1999/xlink" x="0px" y="0px"
	 viewBox="0 0 512 512" style="enable-background:new 0 0 512 512;" xml:space="preserve">
<style type="text/css">
	.st0{fill:#8A8A8A;}
</style>
<path class="st0" d="M495.6,505.3c0-0.7-0.1-1.4-0.1-2.1c-0.1-1.5-0.1-3.1-0.2-4.6c0-0.8-0.1-1.6-0.2-2.4c-0.1-1.4-0.2-2.9-0.3-4.3
	c-0.1-0.8-0.1-1.6-0.2-2.4c-0.1-1.5-0.3-3-0.5-4.5c-0.1-0.7-0.2-1.4-0.2-2.1c-0.2-1.7-0.4-3.4-0.7-5c-0.1-0.5-0.1-1-0.2-1.5
	c-1-6.7-2.3-13.4-3.8-19.9c0-0.1-0.1-0.2-0.1-0.4c-0.5-2.1-1-4.2-1.6-6.2c0-0.1-0.1-0.3-0.1-0.4c-0.6-2.1-1.2-4.2-1.8-6.3l0,0
	c-18.4-61.5-60.8-112.5-116.3-142.4c35.8-31.5,58.4-77.6,58.4-128.9C427.7,77,350.8,0,256,0S84.3,76.9,84.3,171.7
	c0,51.4,22.6,97.5,58.4,129c-55.5,29.8-97.9,80.9-116.3,142.4l0,0c-0.6,2.1-1.2,4.2-1.8,6.3c0,0.1-0.1,0.3-0.1,0.4
	c-0.6,2.1-1.1,4.1-1.6,6.2c0,0.1-0.1,0.2-0.1,0.4c-1.6,6.5-2.8,13.2-3.8,19.9c-0.1,0.5-0.1,1-0.2,1.5c-0.2,1.7-0.5,3.3-0.7,5
	c-0.1,0.7-0.2,1.4-0.2,2.1c-0.2,1.5-0.3,3-0.5,4.5c-0.1,0.8-0.1,1.6-0.2,2.4c-0.1,1.4-0.2,2.9-0.3,4.3c-0.1,0.8-0.1,1.6-0.2,2.4
	c-0.1,1.5-0.1,3.1-0.2,4.6c0,0.7-0.1,1.4-0.1,2.1c-0.1,2.2-0.1,4.5-0.1,6.7h40h399.4h40C495.7,509.8,495.7,507.5,495.6,505.3z
	 M124.2,171.7c0-35.2,13.7-68.3,38.6-93.2S220.8,40,256,40s68.3,13.7,93.2,38.6c24.9,24.9,38.6,58,38.6,93.2S374,240,349.2,264.9
	c-24.9,24.9-58,38.6-93.2,38.6s-68.3-13.7-93.2-38.6S124.2,206.9,124.2,171.7z M60.3,472.1c7.4-36.2,24.6-69.4,49.5-96.1l0,0
	c1.6-1.8,3.3-3.5,5-5.2c19.4-19.4,42.1-34.3,66.8-44.2c1.3,0.6,2.7,1.3,4,1.9c0.4,0.2,0.8,0.4,1.2,0.5c1,0.4,1.9,0.8,2.9,1.2
	c0.5,0.2,1,0.4,1.5,0.6c0.9,0.4,1.8,0.7,2.6,1.1c0.5,0.2,1.1,0.4,1.6,0.6c0.9,0.3,1.7,0.6,2.6,1c0.6,0.2,1.1,0.4,1.7,0.6
	c0.9,0.3,1.7,0.6,2.6,0.9c0.6,0.2,1.1,0.4,1.7,0.5c0.9,0.3,1.8,0.6,2.7,0.8c0.5,0.2,1.1,0.3,1.6,0.5c1,0.3,2,0.6,3.1,0.8
	c0.4,0.1,0.9,0.2,1.3,0.4c1.5,0.4,2.9,0.7,4.4,1.1l0,0c1.5,0.3,2.9,0.7,4.4,1c0.5,0.1,1,0.2,1.4,0.3c1,0.2,2,0.4,3.1,0.6
	c0.6,0.1,1.2,0.2,1.7,0.3c0.9,0.2,1.9,0.3,2.8,0.4c0.6,0.1,1.2,0.2,1.9,0.3c0.9,0.1,1.8,0.2,2.7,0.4c0.6,0.1,1.3,0.1,1.9,0.2
	c0.9,0.1,1.8,0.2,2.8,0.3c0.6,0.1,1.3,0.1,1.9,0.2c1,0.1,1.9,0.1,2.9,0.2c0.6,0,1.2,0.1,1.8,0.1c1.1,0.1,2.1,0.1,3.2,0.1
	c0.5,0,1,0,1.5,0.1c1.6,0,3.1,0.1,4.7,0.1l0,0l0,0l0,0c1.6,0,3.2,0,4.7-0.1c0.5,0,1,0,1.5-0.1c1.1,0,2.1-0.1,3.2-0.1
	c0.6,0,1.2-0.1,1.8-0.1c1-0.1,1.9-0.1,2.9-0.2c0.6-0.1,1.3-0.1,1.9-0.2c0.9-0.1,1.8-0.2,2.8-0.3c0.6-0.1,1.3-0.1,1.9-0.2
	c0.9-0.1,1.8-0.2,2.7-0.4c0.6-0.1,1.2-0.2,1.9-0.3c0.9-0.1,1.9-0.3,2.8-0.4c0.6-0.1,1.2-0.2,1.7-0.3c1-0.2,2-0.4,3-0.6
	c0.5-0.1,1-0.2,1.5-0.3c1.5-0.3,3-0.6,4.4-1l0,0c1.5-0.3,3-0.7,4.4-1.1c0.5-0.1,0.9-0.2,1.4-0.4c1-0.3,2-0.5,3-0.8
	c0.5-0.2,1.1-0.3,1.6-0.5c0.9-0.3,1.8-0.5,2.7-0.8c0.6-0.2,1.1-0.4,1.7-0.6c0.9-0.3,1.7-0.6,2.6-0.9c0.6-0.2,1.2-0.4,1.7-0.6
	c0.9-0.3,1.7-0.6,2.5-0.9c0.6-0.2,1.1-0.4,1.7-0.6c0.9-0.3,1.7-0.7,2.6-1c0.5-0.2,1-0.4,1.6-0.6c0.9-0.4,1.9-0.8,2.8-1.2
	c0.4-0.2,0.9-0.4,1.3-0.6c1.3-0.6,2.7-1.2,4-1.9l0,0c24.7,9.9,47.4,24.8,66.8,44.2c1.7,1.7,3.4,3.4,5,5.2l0,0
	c24.9,26.8,42.1,60,49.5,96.1H60.3z"/>
</svg>
