<svg xmlns="http://www.w3.org/2000/svg" viewBox="0 0 230 230"><defs><style>.cls-1{fill:#ffd9d9;}.cls-2{fill:#ffa1a1;}.cls-3{fill:#ffd7d7;}</style></defs><g id="レイヤー_2" data-name="レイヤー 2"><g id="レイヤー_1-2" data-name="レイヤー 1"><circle class="cls-1" cx="115" cy="115" r="115"/><path class="cls-2" d="M168.7,99.88c0-.38,0-.75-.07-1.13s0-.64-.08-1-.09-.79-.14-1.18-.08-.59-.13-.89-.15-.86-.24-1.28c0-.26-.1-.51-.16-.77-.11-.48-.24-1-.37-1.44-.06-.19-.11-.38-.17-.58-.16-.55-.35-1.1-.56-1.65a3.4,3.4,0,0,0-.12-.34c-.24-.65-.52-1.29-.82-1.93v0a31.73,31.73,0,0,0-11.5-13c-19.56-13-39.3,1-45.9,6.59a3.57,3.57,0,0,1-4.62,0c-6.6-5.6-26.34-19.64-45.89-6.59a31.69,31.69,0,0,0-11.51,13v0c-.31.64-.58,1.29-.83,1.94l-.12.33c-.2.55-.39,1.11-.56,1.67-.06.19-.11.38-.16.56-.14.49-.27,1-.38,1.46l-.15.75c-.09.43-.18.86-.25,1.3l-.12.87c-.06.4-.11.8-.15,1.19s0,.64-.08.95,0,.76-.06,1.14,0,.65,0,1,0,.77,0,1.15l0,.92c0,.41,0,.81.06,1.22s0,.54.06.81c0,.45.08.9.13,1.35,0,.21.05.42.07.63.07.52.14,1,.22,1.56l.06.37c.11.62.22,1.23.34,1.85v0A74,74,0,0,0,53,132.45c6.42,11,25.89,33.41,51.92,42.25a3.61,3.61,0,0,0,2.34,0c26-8.84,45.5-31.28,51.93-42.25a74.22,74.22,0,0,0,8.53-21.71.07.07,0,0,0,0,0c.12-.6.23-1.21.34-1.82l.06-.4c.08-.5.15-1,.22-1.53,0-.22.05-.43.08-.65,0-.44.09-.89.13-1.33l.06-.83c0-.4,0-.8,0-1.2s0-.63,0-.94,0-.75,0-1.12S168.71,100.21,168.7,99.88Z"/><path class="cls-2" d="M150.57,182.41a5.71,5.71,0,0,1-1.83-.3c-16-5.43-28.7-19.2-33.34-27.13a48.46,48.46,0,0,1-5.58-14.22v-.08c-.08-.39-.15-.78-.22-1.18l0-.26c-.06-.34-.11-.69-.15-1l-.05-.43q-.06-.47-.09-.93c0-.18,0-.37,0-.57s0-.55,0-.83,0-.42,0-.63V134c0-.22,0-.44,0-.67s0-.54,0-.8,0-.48.06-.68.06-.55.1-.83.06-.46.09-.64.11-.6.17-.91l.11-.53c.08-.36.18-.71.27-1.05l.12-.4c.12-.42.26-.82.41-1.22l.07-.21c.15-.39.3-.76.47-1.13v0l.15-.3a22.61,22.61,0,0,1,8.19-9.28,22.09,22.09,0,0,1,12.41-3.85c8.1,0,14.93,4.33,18.72,7.37,3.8-3,10.63-7.37,18.73-7.37a22.09,22.09,0,0,1,12.41,3.85,22.72,22.72,0,0,1,8.19,9.27l0,.07c.21.45.4.91.58,1.36l.07.21c.16.44.3.84.42,1.25l.12.41c.09.34.18.68.26,1,0,.17.07.33.11.49.07.37.13.67.18,1s.05.36.08.55c.05.35.08.63.11.9s0,.41,0,.61,0,.6.05.87,0,.47,0,.71,0,.5,0,.76,0,.43,0,.65,0,.55,0,.83,0,.38,0,.58l-.09.89-.05.45-.15,1,0,.28c-.06.4-.14.8-.22,1.2l0,.18A48.72,48.72,0,0,1,185.75,155c-4.65,7.93-17.36,21.7-33.34,27.13A5.72,5.72,0,0,1,150.57,182.41Z"/><path class="cls-3" d="M169.3,115a18.56,18.56,0,0,1,10.47,3.26,19.27,19.27,0,0,1,7,7.85v0c.18.39.35.78.5,1.17a1.18,1.18,0,0,0,.07.2c.12.34.24.67.34,1,0,.11.06.23.1.35.08.29.16.58.22.87s.07.31.1.46.1.52.14.78.06.36.08.54l.09.71c0,.2,0,.39.05.59s0,.45,0,.68,0,.4,0,.6,0,.45,0,.67,0,.39,0,.58l0,.72c0,.17,0,.34,0,.5s-.05.54-.08.81,0,.26,0,.39c0,.31-.08.62-.13.93a2,2,0,0,1,0,.24c-.06.37-.13.74-.2,1.11v0a44.91,44.91,0,0,1-5.16,13.14c-3.89,6.65-15.68,20.23-31.45,25.59a2.35,2.35,0,0,1-1.42,0c-15.76-5.36-27.55-18.94-31.44-25.59a44.86,44.86,0,0,1-5.17-13.15v0q-.12-.56-.21-1.11l0-.23c-.05-.31-.1-.63-.14-.94,0-.13,0-.26,0-.38,0-.28-.06-.55-.08-.82s0-.33,0-.49,0-.49,0-.74,0-.37,0-.56v-.69c0-.2,0-.39,0-.59s0-.46,0-.69,0-.38,0-.57,0-.49.09-.73,0-.35.07-.53.1-.52.15-.78l.09-.46c.07-.29.15-.58.23-.88,0-.11.06-.23.1-.34.1-.34.22-.68.34-1,0-.07,0-.13.07-.2.15-.4.32-.79.5-1.18h0a19.13,19.13,0,0,1,7-7.85A18.52,18.52,0,0,1,131.85,115c7.83,0,14.53,4.88,17.33,7.26a2.16,2.16,0,0,0,2.79,0c2.8-2.38,9.5-7.26,17.33-7.26m0-7c-7.73,0-14.34,3.42-18.73,6.5-4.39-3.08-11-6.5-18.72-6.5a25.43,25.43,0,0,0-14.35,4.44,26.12,26.12,0,0,0-9.42,10.7l0,.08,0,0c-.23.51-.45,1-.65,1.55l-.1.27c-.19.53-.34,1-.48,1.42l-.11.39,0,.06c-.11.41-.22.81-.31,1.22,0,.16-.07.32-.1.49l0,.1c-.08.39-.15.75-.21,1.1,0,.19-.06.4-.09.61v.08c0,.34-.08.66-.12,1l-.06.77c0,.3,0,.6,0,.9s0,.53,0,.79v.88c0,.24,0,.48,0,.72s0,.62,0,.93,0,.41,0,.62.06.69.1,1l.06.49c0,.38.1.76.16,1.15l0,.17V140c.08.46.15.88.24,1.3v0l0,.09a52.07,52.07,0,0,0,6,15.3c4.22,7.21,17,22.49,35.23,28.68a9.32,9.32,0,0,0,3,.48,9.11,9.11,0,0,0,3-.49c18.21-6.18,31-21.46,35.23-28.67a52.35,52.35,0,0,0,6-15.2v-.05l0-.09.24-1.31c0-.1,0-.21.05-.31.06-.39.11-.77.16-1.15,0-.18,0-.34.06-.5,0-.32.07-.66.09-1s0-.44,0-.65,0-.6.05-.91,0-.5,0-.74,0-.58,0-.87,0-.51,0-.77,0-.61-.05-.9,0-.54-.07-.79-.07-.63-.11-.94-.07-.49-.1-.72-.13-.71-.2-1.06l0-.12-.12-.52c-.09-.4-.19-.8-.31-1.2v-.06l-.12-.41c-.13-.44-.28-.88-.47-1.39,0-.1-.07-.19-.1-.29-.19-.5-.41-1-.64-1.52l0,0-.05-.12a26.24,26.24,0,0,0-9.42-10.69A25.45,25.45,0,0,0,169.3,108Z"/></g></g></svg>