<?xml version="1.0" encoding="utf-8"?>
<!-- Generator: Adobe Illustrator 25.4.1, SVG Export Plug-In . SVG Version: 6.00 Build 0)  -->
<svg version="1.1" id="レイヤー_1" xmlns="http://www.w3.org/2000/svg" xmlns:xlink="http://www.w3.org/1999/xlink" x="0px"
	 y="0px" viewBox="0 0 180 180" style="enable-background:new 0 0 180 180;" xml:space="preserve">
<style type="text/css">
	.st0{fill:#FFCE00;}
	.st1{fill:#444444;}
	.st2{fill:none;}
</style>
<g>
	<path id="パス_6241" class="st0" d="M20.7,46.5c-1.5,0-2.6-1.2-2.6-2.6V33.8c0-1.5,1.2-2.6,2.6-2.6s2.6,1.2,2.6,2.6v10.1
		C23.3,45.3,22.2,46.5,20.7,46.5L20.7,46.5z"/>
	<path id="パス_6242" class="st0" d="M20.7,69.8c-1.4,0-2.6-1.2-2.6-2.6l0,0V57c0-1.5,1.2-2.6,2.6-2.6c1.5,0,2.6,1.2,2.6,2.6l0,0
		v10.1C23.3,68.6,22.2,69.8,20.7,69.8L20.7,69.8z"/>
	<path id="パス_6243" class="st0" d="M14.7,53.2H4.6C3.2,53.2,2,52,2,50.6C2,49.1,3.2,48,4.6,48h10.1c1.5,0,2.6,1.2,2.6,2.6
		C17.4,52,16.2,53.2,14.7,53.2z"/>
	<path id="パス_6244" class="st0" d="M36.8,53.2H26.7c-1.5,0-2.6-1.2-2.6-2.6c0-1.5,1.2-2.6,2.6-2.6h10.1c1.5,0,2.6,1.2,2.6,2.6
		S38.2,53.2,36.8,53.2z"/>
	<path id="パス_6245" class="st0" d="M59.9,15.4c-1.5,0-2.6-1.2-2.6-2.6V2.6c0-1.5,1.2-2.6,2.6-2.6c1.4,0,2.6,1.2,2.6,2.6v10.1
		C62.5,14.2,61.3,15.4,59.9,15.4L59.9,15.4z"/>
	<path id="パス_6246" class="st0" d="M59.9,37.4c-1.5,0-2.6-1.2-2.6-2.6V24.7c0-1.5,1.2-2.6,2.6-2.6c1.4,0,2.6,1.2,2.6,2.6v10.1
		C62.5,36.2,61.3,37.4,59.9,37.4z"/>
	<path id="パス_6247" class="st0" d="M53.2,21.3H43.1c-1.5,0-2.6-1.2-2.6-2.6c0-1.5,1.2-2.6,2.6-2.6h10.1c1.5,0,2.6,1.2,2.6,2.6
		C55.8,20.2,54.7,21.3,53.2,21.3L53.2,21.3z"/>
	<path id="パス_6248" class="st0" d="M76.5,21.3H66.4c-1.5,0-2.6-1.2-2.6-2.6c0-1.5,1.2-2.6,2.6-2.6h10.1c1.5,0,2.6,1.2,2.6,2.6
		C79.1,20.2,77.9,21.3,76.5,21.3L76.5,21.3z"/>
	<path id="パス_6241_00000031198251445091602920000003082094642727238051_" class="st0" d="M159.2,46.5c1.5,0,2.6-1.2,2.6-2.6
		V33.8c0-1.5-1.2-2.6-2.6-2.6c-1.4,0-2.6,1.2-2.6,2.6v10.1C156.6,45.3,157.8,46.5,159.2,46.5L159.2,46.5z"/>
	<path id="パス_6242_00000103262511452992354350000018173760468991148477_" class="st0" d="M159.2,69.7c1.4,0,2.6-1.2,2.6-2.6l0,0
		V57c0-1.5-1.2-2.6-2.6-2.6c-1.5,0-2.6,1.2-2.6,2.6l0,0v10.1C156.6,68.6,157.8,69.7,159.2,69.7L159.2,69.7z"/>
	<path id="パス_6243_00000051357527240635873490000006649203689499991431_" class="st0" d="M165.2,53.2h10.1
		c1.5,0,2.6-1.2,2.6-2.6c0-1.5-1.2-2.6-2.6-2.6h-10.1c-1.5,0-2.6,1.2-2.6,2.6C162.6,52,163.7,53.2,165.2,53.2z"/>
	<path id="パス_6244_00000160174182985496383080000014427405811621075357_" class="st0" d="M143.1,53.2h10.1
		c1.5,0,2.6-1.2,2.6-2.6c0-1.5-1.2-2.6-2.6-2.6h-10.1c-1.5,0-2.6,1.2-2.6,2.6S141.7,53.2,143.1,53.2z"/>
	<path id="パス_6245_00000130639845520158718820000002635112043452194495_" class="st0" d="M120,15.3c1.5,0,2.6-1.2,2.6-2.6V2.6
		c0-1.5-1.2-2.6-2.6-2.6s-2.6,1.2-2.6,2.6v10.1C117.4,14.2,118.6,15.3,120,15.3L120,15.3z"/>
	<path id="パス_6246_00000076597766561146895660000005780901279471847074_" class="st0" d="M120,37.4c1.5,0,2.6-1.2,2.6-2.6V24.7
		c0-1.5-1.2-2.6-2.6-2.6s-2.6,1.2-2.6,2.6v10.1C117.4,36.2,118.6,37.4,120,37.4z"/>
	<path id="パス_6247_00000125562582110050863600000014319062870607292855_" class="st0" d="M126.7,21.3h10.1
		c1.5,0,2.6-1.2,2.6-2.6c0-1.5-1.2-2.6-2.6-2.6h-10.1c-1.5,0-2.6,1.2-2.6,2.6C124.1,20.1,125.2,21.3,126.7,21.3L126.7,21.3z"/>
	<path id="パス_6248_00000176026460501722533070000008737638431566157979_" class="st0" d="M103.5,21.3h10.1
		c1.5,0,2.6-1.2,2.6-2.6c0-1.5-1.2-2.6-2.6-2.6h-10.1c-1.5,0-2.6,1.2-2.6,2.6C100.8,20.1,102,21.3,103.5,21.3L103.5,21.3z"/>
	<g id="グループ_497" transform="translate(1718.303 639.962)">
		<path id="パス_6257" class="st1" d="M-1548-528.1l-17.7-23.6c-0.3-0.4-0.8-0.8-1.3-1l-34.6-11.6c-1.4-0.5-3,0.2-3.5,1.6
			c-0.5,1.3,0.2,2.8,1.6,3.3h0.1l27.2,9.1l-49.2,16.5v-53.6c-0.1-1.5-1.4-2.7-2.9-2.6c-1.4,0.1-2.5,1.2-2.6,2.6v53.6l-49.2-16.5
			l27.2-9.1c1.4-0.4,2.1-1.9,1.7-3.2v-0.1c-0.6-1.4-2.1-2.1-3.5-1.6l-34.6,11.6c-0.5,0.2-1,0.5-1.3,1l-17.7,23.6
			c-0.5,0.7-0.6,1.5-0.4,2.3c0.3,0.8,0.9,1.4,1.7,1.7l60.3,20.2c1.2,0.4,2.4,0,3.2-1l12.7-16.9v55.5l-54.8-18.4v-25.1
			c-0.1-1.5-1.4-2.7-2.9-2.6c-1.4,0.1-2.5,1.2-2.6,2.6v27c0,1.1,0.8,2.1,1.8,2.5l60.3,20.2c0.1,0,0.1,0,0.2,0.1s0.1,0,0.2,0
			c0.3,0.1,0.7,0.1,1,0c0.1,0,0.1,0,0.2,0s0.1,0,0.2-0.1l60.3-20.2c1.1-0.3,1.8-1.3,1.8-2.5v-27c-0.1-1.5-1.4-2.7-2.9-2.6
			c-1.4,0.1-2.5,1.2-2.6,2.6v25.1l-54.8,18.4v-55.5l12.7,16.9c0.5,0.7,1.4,1.1,2.3,1.1c0.3,0,0.6-0.1,0.9-0.2l60.3-20.2
			c0.8-0.3,1.4-0.9,1.7-1.7C-1547.4-526.6-1547.5-527.5-1548-528.1z M-1647.1-509.5l-54.9-18.4l14.4-19.1l54.9,18.4L-1647.1-509.5z
			 M-1609.5-509.5l-14.4-19.1l54.9-18.4l14.4,19.1L-1609.5-509.5z"/>
		<path id="パス_6258" class="st1" d="M-1613.7-544.2c1.5,0,2.6-1.2,2.6-2.6v-5.6c0.1-8.7,3.5-16.9,9.4-23.3
			c1-1.1,0.9-2.7-0.2-3.7c-1.1-0.9-2.7-0.9-3.6,0.2c-6.8,7.3-10.7,16.8-10.8,26.8v5.6C-1616.4-545.4-1615.2-544.2-1613.7-544.2z"/>
		<path id="パス_6259" class="st1" d="M-1645.5-552.4v5.6c0,1.5,1.2,2.6,2.6,2.6c1.5,0,2.6-1.2,2.6-2.6l0,0v-5.6
			c-0.1-10-4-19.5-10.8-26.8c-1-1.1-2.6-1.2-3.7-0.2s-1.2,2.6-0.2,3.7c0,0,0,0,0.1,0.1C-1649-569.3-1645.6-561-1645.5-552.4z"/>
	</g>
	<rect id="長方形_677" y="0" class="st2" width="180" height="180"/>
</g>
</svg>
