<?xml version="1.0" encoding="utf-8"?>
<!-- Generator: Adobe Illustrator 25.4.1, SVG Export Plug-In . SVG Version: 6.00 Build 0)  -->
<svg version="1.1" id="_x31_0" xmlns="http://www.w3.org/2000/svg" xmlns:xlink="http://www.w3.org/1999/xlink" x="0px" y="0px"
	 viewBox="0 0 427.6 455.9" style="enable-background:new 0 0 427.6 455.9;" xml:space="preserve">
<style type="text/css">
	.st0{fill:#8A8A8A;}
</style>
<g>
	<path class="st0" d="M167.3,127.4c-11.5,0-24.2,4.9-34.6,14.2c-19,17.3-23.5,43.6-9.8,58.6c6.2,6.8,15.1,10.2,24.7,10.2
		c11.7,0,24.2-4.7,34.6-14.2c19.1-17.2,23.5-43.5,9.9-58.6C185.9,130.8,177,127.4,167.3,127.4z"/>
	<path class="st0" d="M415.4,332.3c-28.2-19.6-46.8-52.3-46.8-89.3v-24.7c0-63-37.4-118.8-91.2-144c0.5-3.2,0.8-6.5,0.8-9.8
		C278.3,28.9,249.4,0,213.9,0s-64.4,28.9-64.4,64.4c0,2.5,0.3,5.1,0.6,7.5c0,0.6,0,1.2,0,1.8c-15.6,7-29.8,16.7-42.1,28.2
		c-0.9,0.9-1.8,1.8-2.7,2.7c-1.7,1.7-3.5,3.4-5.1,5.2c-1.3,1.4-2.6,2.9-3.8,4.4c-1.2,1.4-2.4,2.7-3.5,4.1c-1.2,1.5-2.3,3.1-3.5,4.6
		c-1.1,1.5-2.3,3-3.3,4.6c-0.8,1.2-1.6,2.5-2.4,3.7c-1.3,2-2.6,4-3.8,6.1c-0.3,0.6-0.6,1.1-0.9,1.7c-12.6,22.4-19.9,48.2-19.9,75.7
		v28.2c0,37-18.5,69.7-46.8,89.3C4.5,337.7,0,346.8,0,356.3c0,8.2,3.3,15.6,8.7,21c5.3,5.4,12.8,8.7,21,8.7h100.8
		c7.1,39.8,41.8,69.9,83.4,69.9c25.6,0,48.4-11.3,63.9-29.2c0.4-0.5,0.8-0.9,1.2-1.3c0.9-1,1.6-2.1,2.4-3.2c0.7-0.9,1.4-1.8,2.1-2.7
		c0.6-0.8,1-1.6,1.6-2.5c0.8-1.3,1.6-2.5,2.4-3.8c0.4-0.7,0.7-1.4,1.1-2.1c0.8-1.5,1.6-2.9,2.3-4.4c0.3-0.7,0.6-1.4,0.9-2.1
		c0.7-1.6,1.4-3.1,1.9-4.8c0.2-0.5,0.3-1.1,0.5-1.6c1.3-4,2.4-8,3.2-12.2h100.5c16.4,0,29.7-13.3,29.7-29.7
		C427.7,346.8,423.2,337.8,415.4,332.3z M213.8,30.2c18.7,0,33.9,15.1,34.2,33.7c-2.2-0.5-4.4-1-6.6-1.3c-8.9-1.7-18-2.6-27.3-2.6
		h-2.9c-8.3,0.1-16.4,0.9-24.4,2.4c-2.3,0.4-4.6,0.9-6.9,1.4l0,0c-0.1,0-0.1,0-0.2,0C179.9,45.2,195.2,30.2,213.8,30.2z M263,387.4
		c-0.2,0.5-0.4,1-0.5,1.5v0.1l-0.3,0.9c-0.1,0.2-0.2,0.5-0.3,0.7l-0.3,0.7v0.1v0.1l-0.6,1.4c-0.2,0.3-0.4,0.8-0.7,1.2
		c-0.2,0.3-0.4,0.7-0.6,1.1c-0.3,0.6-0.6,1.1-0.8,1.5c-0.1,0.2-0.2,0.3-0.3,0.5c-0.4,0.7-0.8,1.3-1.2,2c-0.3,0.4-0.5,0.8-0.7,1.1
		l-1.2,1.6l-0.3,0.4l-0.3,0.4c-0.2,0.3-0.5,0.7-0.7,1c-0.4,0.5-0.9,1-1.4,1.6c-9.9,11.3-23.7,17.5-38.7,17.5
		c-23.1,0-43-15.2-49.5-36.9h99.1C263.3,386.5,263.2,386.9,263,387.4z M297.4,353h-15.2H270H158.1h-8.3h-19.4h-91
		C72.5,326.2,92,285.8,92,242.9v-28.2c0-20.7,5.4-41.3,15.7-59.5l0.4-0.7l0.2-0.5l0,0c0.1-0.2,0.2-0.4,0.4-0.7
		c0.7-1.1,1.5-2.4,2.4-3.9c0.5-0.7,1-1.5,1.4-2.2c0.3-0.5,0.6-0.9,0.9-1.3l0.3-0.4l0.2-0.3c0.2-0.2,0.6-0.8,0.9-1.2
		c0.2-0.3,0.5-0.7,0.7-1c0.8-1,1.5-1.9,2-2.7c0.4-0.5,0.8-1.1,1-1.3l0.1-0.1l0.1-0.1c0.2-0.3,0.8-0.9,1.2-1.4
		c0.5-0.5,0.9-1.1,1.4-1.6l0.4-0.4l0.3-0.4c0.7-0.8,1.4-1.7,2.2-2.6l0.2-0.3l0.2-0.3c0.5-0.5,1.4-1.5,2.3-2.3c0.5-0.5,1-1,1.5-1.4
		l2.3-2.3c9.7-9.1,20.7-16.4,32.7-21.8l11.3-5.1l12.1-2.7c1.9-0.4,3.6-0.8,5.3-1.1h0.2h0.2c6.1-1.1,12.2-1.7,18.5-1.8h2.7
		c7,0,14.1,0.7,21.1,2l0.3,0.1h0.3c1.6,0.3,3.2,0.6,5.1,1l10.3,2.4l12.3,5.7c21.1,9.9,39.1,25.7,52,45.8
		c13.2,20.5,20.2,44.1,20.2,68.3V243c0,42.8,19.4,83.2,52.5,110H297.4z"/>
</g>
</svg>
