<?xml version="1.0" encoding="utf-8"?>
<!-- Generator: Adobe Illustrator 25.4.1, SVG Export Plug-In . SVG Version: 6.00 Build 0)  -->
<svg version="1.1" id="_x31_0" xmlns="http://www.w3.org/2000/svg" xmlns:xlink="http://www.w3.org/1999/xlink" x="0px" y="0px"
	 viewBox="0 0 450.8 511.9" style="enable-background:new 0 0 450.8 511.9;" xml:space="preserve">
<style type="text/css">
	.st0{fill:#4B4B4B;}
</style>
<g>
	<path class="st0" d="M333,22.7c13.4,0,24.3,10.9,24.3,24.3v14v22.7H380h48.1v405.7H22.6V83.7h48.2h22.7V61V47
		c0-13.4,10.9-24.3,24.3-24.3h20.8c13.3,0,24.2,10.9,24.2,24.3v14v22.7h22.7h79.7h22.6V61V47c0-13.4,10.9-24.3,24.3-24.3H333 M333,0
		h-20.8c-25.9,0-47,21.1-47,47v14h-79.7V47c0-25.9-21.1-47-46.9-47h-20.8c-25.9,0-47,21.1-47,47v14h-52C8.5,61,0,69.5,0,79.9V493
		c0,10.5,8.5,18.9,18.8,18.9H432c10.3,0,18.8-8.5,18.8-18.9V79.9c0-10.5-8.5-18.9-18.8-18.9h-52V47C380,21.1,358.9,0,333,0L333,0z"
		/>
</g>
<g>
	<path class="st0" d="M138.6,40.3h-20.8c-3.8,0-6.7,3.1-6.7,6.7v14v41.2c0,1.6,1.3,3,3,3h28.2c1.6,0,3-1.3,3-3V61V47
		C145.2,43.4,142.2,40.3,138.6,40.3L138.6,40.3z"/>
</g>
<g>
	<path class="st0" d="M333,40.3h-20.8c-3.6,0-6.7,3.1-6.7,6.7v14v41.2c0,1.6,1.3,3,3.1,3h28.1c1.8,0,3.1-1.3,3.1-3V61V47
		C339.7,43.4,336.8,40.3,333,40.3L333,40.3z"/>
</g>
<g>
	<path class="st0" d="M374.4,205.5v230.1h-298V205.5H374.4 M396.2,182.8H53.7v275.4h343.4V182.9L396.2,182.8L396.2,182.8z"/>
</g>
<g>
	<polygon class="st0" points="147.7,233.8 107.4,233.8 107.4,273.8 107.4,273.9 107.4,274.1 147.7,274.1 	"/>
</g>
<g>
	<polygon class="st0" points="212.9,233.8 172.6,233.8 172.6,274.1 212.9,274.1 	"/>
</g>
<g>
	<polygon class="st0" points="278.2,233.8 237.9,233.8 237.9,274.1 278.2,274.1 	"/>
</g>
<g>
	<polygon class="st0" points="343.4,233.8 303,233.8 303,273.8 303,273.9 303,274.1 343.4,274.1 	"/>
</g>
<g>
	<polygon class="st0" points="147.7,299.1 107.4,299.1 107.4,339.1 107.4,339.2 107.4,339.4 147.7,339.4 	"/>
</g>
<g>
	<polygon class="st0" points="212.9,299.1 172.6,299.1 172.6,339.4 212.9,339.4 	"/>
</g>
<g>
	<polygon class="st0" points="278.2,299.1 237.9,299.1 237.9,339.4 278.2,339.4 	"/>
</g>
<g>
	<polygon class="st0" points="343.4,299.1 303,299.1 303,339.1 303,339.2 303,339.4 343.4,339.4 	"/>
</g>
<g>
	<polygon class="st0" points="147.7,364.2 107.4,364.2 107.4,404.2 107.4,404.4 107.4,404.5 147.7,404.5 	"/>
</g>
<g>
	<polygon class="st0" points="212.9,364.2 172.6,364.2 172.6,404.5 212.9,404.5 	"/>
</g>
<g>
	<polygon class="st0" points="278.2,364.2 237.9,364.2 237.9,404.5 278.2,404.5 	"/>
</g>
<g>
	<polygon class="st0" points="343.4,364.2 303,364.2 303,404.2 303,404.4 303,404.5 343.4,404.5 	"/>
</g>
</svg>
