<?xml version="1.0" encoding="utf-8"?>
<!-- Generator: Adobe Illustrator 25.4.1, SVG Export Plug-In . SVG Version: 6.00 Build 0)  -->
<svg version="1.1" id="_x32_" xmlns="http://www.w3.org/2000/svg" xmlns:xlink="http://www.w3.org/1999/xlink" x="0px" y="0px"
	 viewBox="0 0 475.6 512" style="enable-background:new 0 0 475.6 512;" xml:space="preserve">
<style type="text/css">
	.st0{fill:#4B4B4B;}
</style>
<g>
	<path class="st0" d="M428.7,139.3l-39.4-0.2c34.8-21.3,50.3-62.6,34.9-96.5c-11.8-26-39.6-42.6-69-42.6c-12.5,0-25.3,3-37.3,9.5
		c-26.4,14.4-46.8,34.5-62.4,55c-0.3,0.4-0.6,0.7-0.8,1.1c-2.4,3.2-4.7,6.3-6.8,9.5c-0.9,1.3-1.8,2.5-2.6,3.8
		c-0.9,1.4-1.8,2.8-2.7,4.2c-1.6,2.5-3.2,4.9-4.8,7.5c-16.6-28.3-42.3-60.6-80-81.1C145.7,3,132.9,0,120.5,0
		c-29.4,0-57.2,16.6-69,42.6c-12.9,28.3-4.2,61.6,19.1,84.3c4.7,4.6,9.9,8.8,15.7,12.5H0v106.8c0,2.2,1.7,3.9,3.9,3.9h204.2v-110
		h59.4v110h204.2c2.1,0,3.9-1.7,3.9-3.9V139.3H428.7z M179.5,112.5c-23.9,0-45.1-4.1-63-12.3c-9.1-4.1-16.3-11.2-19.9-19.4
		c-1.6-3.7-3.9-11-0.7-17.9c3.7-8.1,14.1-14.1,24.7-14.1c4.9,0,9.6,1.2,14,3.6C157.8,65,175.3,84.2,188,103c2,2.9,3.9,5.9,5.7,9.1
		C189,112.3,184.3,112.5,179.5,112.5z M379.1,80.8c-3.6,8.2-10.9,15.3-19.9,19.4c-17.9,8.2-39.1,12.3-63,12.3
		c-4.3,0-8.4-0.2-12.5-0.4c-0.6-0.1-1.1-0.1-1.7-0.2c13.1-21.4,32.3-44.9,59.2-59.5c4.4-2.4,9.1-3.6,14-3.6c10.6,0,21,5.9,24.7,14.1
		C383,69.8,380.7,77,379.1,80.8z"/>
	<path class="st0" d="M58,455.3c0,31.3,25.4,56.7,56.7,56.7h93.4V280.1H58V455.3z"/>
	<path class="st0" d="M267.5,512h93.4c31.3,0,56.7-25.4,56.7-56.7V280.1H267.5V512L267.5,512z"/>
</g>
</svg>
