<svg xmlns="http://www.w3.org/2000/svg" width="180" height="180" viewBox="0 0 180 180">
  <g id="グループ_513" data-name="グループ 513" transform="translate(-98 -212)">
    <g id="グループ_506" data-name="グループ 506" transform="translate(-1398.539 -40.168)">
      <path id="パス_6260" data-name="パス 6260" d="M1638.291,282h-12.768v-6.246c0-3.447-3.916-5.587-10.221-5.587s-10.22,2.14-10.22,5.587V282h-47.25v-6.246c0-3.447-3.916-5.587-10.221-5.587s-10.22,2.14-10.22,5.587V282h-13.016a12.852,12.852,0,0,0-12.838,12.838v94.6a12.852,12.852,0,0,0,12.838,12.838h69.711a2.334,2.334,0,1,0,0-4.668h-69.711a8.178,8.178,0,0,1-8.169-8.17V315.764h130.253V340.9a2.334,2.334,0,1,0,4.668,0V294.838A12.852,12.852,0,0,0,1638.291,282Zm-28.54-6.026c.514-.441,2.461-1.138,5.552-1.138s5.039.7,5.552,1.138v16.319c-.514.441-2.461,1.138-5.552,1.138s-5.038-.7-5.552-1.138Zm-67.69,0c.514-.441,2.461-1.138,5.552-1.138s5.039.7,5.552,1.138v16.319c-.514.441-2.461,1.138-5.552,1.138s-5.038-.7-5.552-1.138ZM1516.207,311.1V294.838a8.179,8.179,0,0,1,8.169-8.169h13.016v5.844c0,1.183.519,3.357,3.995,4.632a18.713,18.713,0,0,0,6.225.956c6.3,0,10.221-2.141,10.221-5.587v-5.844h47.25v5.844c0,1.183.519,3.357,3.995,4.632a18.713,18.713,0,0,0,6.225.956c6.3,0,10.221-2.141,10.221-5.587v-5.844h12.768a8.179,8.179,0,0,1,8.169,8.169V311.1Z" fill="#444"/>
      <g id="グループ_499" data-name="グループ 499" transform="translate(1585.059 329.339)">
        <rect id="長方形_659" data-name="長方形 659" width="7.969" height="7.969" transform="translate(0 0)" fill="#ffce00"/>
        <rect id="長方形_660" data-name="長方形 660" width="7.969" height="7.969" transform="translate(15.532 0)" fill="#ffce00"/>
        <rect id="長方形_661" data-name="長方形 661" width="7.969" height="7.969" transform="translate(32.121 0)" fill="#ffce00"/>
      </g>
      <g id="グループ_500" data-name="グループ 500" transform="translate(1537.22 344.871)">
        <rect id="長方形_662" data-name="長方形 662" width="7.969" height="7.969" transform="translate(0)" fill="#ffce00"/>
        <rect id="長方形_663" data-name="長方形 663" width="7.969" height="7.969" transform="translate(15.532)" fill="#ffce00"/>
        <rect id="長方形_664" data-name="長方形 664" width="7.969" height="7.969" transform="translate(32.121)" fill="#ffce00"/>
      </g>
      <rect id="長方形_665" data-name="長方形 665" width="7.969" height="7.969" transform="translate(1584.531 344.871)" fill="#ffce00"/>
      <rect id="長方形_666" data-name="長方形 666" width="7.969" height="7.969" transform="translate(1600.063 344.871)" fill="#ffce00"/>
      <g id="グループ_501" data-name="グループ 501" transform="translate(1536.935 360.403)">
        <rect id="長方形_667" data-name="長方形 667" width="7.969" height="7.969" fill="#ffce00"/>
        <rect id="長方形_668" data-name="長方形 668" width="7.969" height="7.969" transform="translate(15.532)" fill="#ffce00"/>
        <rect id="長方形_669" data-name="長方形 669" width="7.969" height="7.969" transform="translate(32.121)" fill="#ffce00"/>
      </g>
      <rect id="長方形_670" data-name="長方形 670" width="7.969" height="7.969" transform="translate(1584.246 360.403)" fill="#ffce00"/>
      <g id="グループ_502" data-name="グループ 502" transform="translate(1536.935 375.935)">
        <rect id="長方形_671" data-name="長方形 671" width="7.969" height="7.969" transform="translate(0 0)" fill="#ffce00"/>
        <rect id="長方形_672" data-name="長方形 672" width="7.969" height="7.969" transform="translate(15.532 0)" fill="#ffce00"/>
        <rect id="長方形_673" data-name="長方形 673" width="7.969" height="7.969" transform="translate(32.121 0)" fill="#ffce00"/>
      </g>
      <g id="グループ_503" data-name="グループ 503" transform="translate(1536.752 329.647)">
        <rect id="長方形_674" data-name="長方形 674" width="7.969" height="7.969" transform="translate(0 0)" fill="#ffce00"/>
        <rect id="長方形_675" data-name="長方形 675" width="7.969" height="7.969" transform="translate(15.532 0)" fill="#ffce00"/>
        <rect id="長方形_676" data-name="長方形 676" width="7.969" height="7.969" transform="translate(32.121 0)" fill="#ffce00"/>
      </g>
      <g id="グループ_504" data-name="グループ 504" transform="translate(1601.332 348.682)">
        <path id="パス_6261" data-name="パス 6261" d="M1699.073,472.031a33.657,33.657,0,1,1,33.656-33.657A33.7,33.7,0,0,1,1699.073,472.031Zm0-62.646a28.989,28.989,0,1,0,28.988,28.989A29.021,29.021,0,0,0,1699.073,409.385Z" transform="translate(-1665.416 -404.717)" fill="#ffce00"/>
        <path id="パス_6262" data-name="パス 6262" d="M1708.906,466.35a2.333,2.333,0,0,1-1.589-.624l-14.165-13.163a2.334,2.334,0,1,1,3.177-3.42l12.253,11.386,15.427-20.856a2.334,2.334,0,0,1,3.753,2.776l-16.98,22.955a2.334,2.334,0,0,1-1.66.936C1709.05,466.346,1708.978,466.35,1708.906,466.35Z" transform="translate(-1676.657 -418.881)" fill="#ffce00"/>
      </g>
      <g id="グループ_505" data-name="グループ 505" transform="translate(1624.084 378.32)">
        <path id="パス_6263" data-name="パス 6263" d="M1704.406,455.507" transform="translate(-1704.406 -455.507)" fill="none" stroke="#5fa7c3" stroke-linecap="round" stroke-linejoin="round" stroke-width="38"/>
      </g>
    </g>
    <rect id="長方形_677" data-name="長方形 677" width="180" height="180" transform="translate(98 212)" fill="none"/>
  </g>
</svg>
