<?xml version="1.0" encoding="utf-8"?>
<!-- Generator: Adobe Illustrator 25.4.1, SVG Export Plug-In . SVG Version: 6.00 Build 0)  -->
<svg version="1.1" id="_x31_0" xmlns="http://www.w3.org/2000/svg" xmlns:xlink="http://www.w3.org/1999/xlink" x="0px" y="0px"
	 viewBox="0 0 502.8 512.1" style="enable-background:new 0 0 502.8 512.1;" xml:space="preserve">
<style type="text/css">
	.st0{fill:#8A8A8A;}
</style>
<g>
	<path class="st0" d="M218.5,438.7c-20.3,0-36.7,16.4-36.7,36.7c0,20.3,16.4,36.7,36.7,36.7s36.7-16.4,36.7-36.7
		C255.1,455.1,238.7,438.7,218.5,438.7L218.5,438.7z"/>
	<path class="st0" d="M381.4,438.7c-20.3,0-36.7,16.4-36.7,36.7c0,20.3,16.4,36.7,36.7,36.7s36.7-16.4,36.7-36.7
		S401.7,438.7,381.4,438.7L381.4,438.7z"/>
	<path class="st0" d="M502.8,126.7l-369-29.2l-5.6-31.9c-5.3-29-28.4-51.6-57.7-55.9L5,0L0,33.7l65.5,9.7
		c14.7,2.2,26.3,13.5,28.9,28.1l53,300.1c5,28.2,29.4,48.7,58,48.7h229.7l6.8-34.1H205.5c-12,0-22.3-8.7-24.4-20.5l-7.4-42h283.6
		L502.8,126.7z M173.6,289.7h-6.1l-27.8-157.6l320.9,25.4l-30.5,132.2H173.6z"/>
</g>
</svg>
