<svg xmlns="http://www.w3.org/2000/svg" width="180" height="180" viewBox="0 0 180 180">
  <g id="グループ_511" data-name="グループ 511" transform="translate(-98 -210)">
    <g id="グループ_510" data-name="グループ 510" transform="translate(-1242.932 -63.375)">
      <path id="パス_6272" data-name="パス 6272" d="M1560.549,505.932a17.8,17.8,0,0,0-2.081-6.923l-15.7-29.1a9.383,9.383,0,0,0-7.99-5.038c-1.8-.029-5.224.509-8.223,4.453a11.833,11.833,0,0,0-6.771.74,10.461,10.461,0,0,0-4.519,3.438,10.994,10.994,0,0,0-5.189,0,10.209,10.209,0,0,0-5.026,2.784L1490.6,449.505a8.92,8.92,0,0,0-12.068-3.625,9.42,9.42,0,0,0-4.5,5.423,8.663,8.663,0,0,0,.549,6.844l22.511,41.731c-10.01-6.512-15.251-8.711-20.386-5.939a7.619,7.619,0,0,0-4.05,4.911,7.809,7.809,0,0,0,.826,5.49c1.023,1.9,3.456,3.485,7.141,5.89a85.174,85.174,0,0,1,13.479,10.291l1.055,1.027c6.237,6.069,11.163,10.863,17.41,14.621a25,25,0,0,0,24.654.572l9.67-5.217A26.19,26.19,0,0,0,1560.549,505.932Zm-15.969,21.3-9.67,5.217a20.109,20.109,0,0,1-19.827-.458c-5.763-3.469-10.277-7.86-16.524-13.939l-1.058-1.029a90.708,90.708,0,0,0-14.216-10.88c-2.261-1.476-5.075-3.313-5.511-4.119-.877-1.628-.469-2.87,1.249-3.8a4.465,4.465,0,0,1,2.2-.56c3.083,0,8.233,2.741,20.846,11.43l1.1,2.068a2.437,2.437,0,0,0,4.305-2.286l-1.354-2.551-27.241-50.5a4.361,4.361,0,0,1,1.975-5.662,4.041,4.041,0,0,1,5.464,1.649l16.593,30.758a2.437,2.437,0,0,0,4.541-.712,4.588,4.588,0,0,1,3.416-3.523,5.324,5.324,0,0,1,3.536,0,2.438,2.438,0,0,0,4.243-.828,5.01,5.01,0,0,1,3.008-2.945,6.165,6.165,0,0,1,4.728-.2,2.427,2.427,0,0,0,3.264-.9c1.418-2.4,3.183-3.725,4.979-3.725h.068a4.568,4.568,0,0,1,3.792,2.478l15.7,29.1a12.917,12.917,0,0,1,1.514,5.026l.008.082A21.312,21.312,0,0,1,1544.581,527.235Z" transform="translate(-58.473 -86.339)" fill="#444"/>
      <path id="パス_6273" data-name="パス 6273" d="M1424.908,466.943a2.473,2.473,0,0,1-2.473-2.473V447.308l-5.669,5.669a2.473,2.473,0,1,1-3.5-3.5l9.889-9.889a2.341,2.341,0,0,1,.184-.166c.026-.021.052-.039.078-.059s.076-.058.116-.085.067-.041.1-.062.07-.044.106-.063.072-.035.108-.052.073-.036.111-.052.071-.026.107-.039.081-.03.121-.042.073-.019.109-.028.083-.022.125-.031.087-.013.13-.02.072-.012.109-.016c.081-.008.162-.012.244-.012s.163,0,.244.012c.037,0,.073.011.109.016s.086.011.13.02.083.02.125.031.073.017.109.028.081.028.121.042.072.024.107.039.074.035.111.052.073.033.108.052.07.041.105.062.068.04.1.062.078.056.115.084.054.038.079.059a2.456,2.456,0,0,1,.184.166l9.889,9.889a2.472,2.472,0,1,1-3.5,3.5l-5.669-5.669v17.163A2.472,2.472,0,0,1,1424.908,466.943Z" transform="translate(-26.727 -80.93)" fill="#444"/>
      <g id="グループ_509" data-name="グループ 509" transform="translate(1372.427 302.498)">
        <path id="パス_6274" data-name="パス 6274" d="M1436.619,341.131h-6.5a7.561,7.561,0,0,0-.135-5.992,7.506,7.506,0,0,0-12.557-1.659l-5.332,6.353-5.328-6.348a7.505,7.505,0,0,0-12.563,1.662,7.558,7.558,0,0,0-.133,5.984h-6.5a2.336,2.336,0,0,0-2.337,2.337v9.6a2.336,2.336,0,0,0,2.337,2.337h49.043a2.337,2.337,0,0,0,2.337-2.337v-9.6A2.337,2.337,0,0,0,1436.619,341.131Zm-15.606-4.652a2.833,2.833,0,0,1,4.73.618,2.869,2.869,0,0,1,.047,2.283,2.329,2.329,0,0,0-.007,1.751h-8.674Zm-6.988,9.325v4.922h-3.856V345.8Zm-15.621-6.424a2.864,2.864,0,0,1,.043-2.276,2.834,2.834,0,0,1,4.737-.622l3.9,4.648h-8.675A2.326,2.326,0,0,0,1398.4,339.381Zm-8.493,6.424H1405.5v4.922h-15.583Zm44.37,4.922H1418.7V345.8h15.584Z" transform="translate(-1385.239 -330.797)" fill="#ffce00"/>
        <path id="パス_6275" data-name="パス 6275" d="M1436.371,382.878a2.337,2.337,0,0,0-2.337,2.337v18.732h-13.452V385.215a2.337,2.337,0,1,0-4.673,0v18.732h-3.856V385.215a2.337,2.337,0,1,0-4.674,0v18.732h-13.451V385.215a2.336,2.336,0,1,0-4.673,0v21.069a2.337,2.337,0,0,0,2.337,2.337h44.778a2.337,2.337,0,0,0,2.337-2.337V385.215A2.336,2.336,0,0,0,1436.371,382.878Z" transform="translate(-1387.124 -355.231)" fill="#ffce00"/>
      </g>
      <path id="パス_6276" data-name="パス 6276" d="M1434.581,273.375h-69.232a7.426,7.426,0,0,0-7.418,7.417V409.366a7.427,7.427,0,0,0,7.418,7.418h45.278l0-.016,1.827.016a2.465,2.465,0,0,0,.452-4.893c.013-.018.024-.036.036-.053h-1.288l-2.084-.018,0,.018h-44.228a2.475,2.475,0,0,1-2.473-2.473v-4.945h57.847v.006l.683-.006h1.325v-.012l.918-.008a2.469,2.469,0,0,0-.043-4.938l-1.4.012h-59.324V293.155h74.177v66.4l-.018,2.109a2.469,2.469,0,0,0,4.938.044l.017-2H1442V280.792A7.426,7.426,0,0,0,1434.581,273.375Zm2.472,14.836h-74.177v-7.418a2.476,2.476,0,0,1,2.473-2.473h69.232a2.475,2.475,0,0,1,2.472,2.473Z" transform="translate(0)" fill="#444"/>
    </g>
    <rect id="長方形_677" data-name="長方形 677" width="180" height="180" transform="translate(98 210)" fill="none"/>
  </g>
</svg>
