<?xml version="1.0" encoding="utf-8"?>
<!-- Generator: Adobe Illustrator 25.4.1, SVG Export Plug-In . SVG Version: 6.00 Build 0)  -->
<svg version="1.1" id="_x32_" xmlns="http://www.w3.org/2000/svg" xmlns:xlink="http://www.w3.org/1999/xlink" x="0px" y="0px"
	 viewBox="0 0 510.6 526.5" style="enable-background:new 0 0 510.6 526.5;" xml:space="preserve">
<style type="text/css">
	.st0{fill:#4B4B4B;}
</style>
<path class="st0" d="M429.6,231.1H81c-33.6,0-60.9,27.3-60.9,60.9v49.9v16v6.1l6,0.9l15.8,2.3c5.7,0.8,10,5.8,10,11.6
	s-4.3,10.7-10,11.6l-15.8,2.3l-6,0.9v6.1v16v49.9c0,33.6,27.3,60.9,60.9,60.9h348.7c33.6,0,60.9-27.3,60.9-60.9V416v-18v-6.7
	l-6.7-0.3l-17.6-0.8c-6.2-0.3-11.1-5.4-11.1-11.7c0-6.2,4.9-11.4,11.1-11.7l17.6-0.8l6.7-0.3V359v-17.6v-49.5
	C490.5,258.4,463.2,231.1,429.6,231.1z M165.2,430.6v31.8v7h-7H146h-7v-7v-31.8v-7h7h12.2h7V430.6z M165.2,362.6v31.8v7h-7H146h-7
	v-7v-31.8v-7h7h12.2h7V362.6z M165.2,294.6v31.8v7h-7H146h-7v-7v-31.8v-7h7h12.2h7V294.6z"/>
<polygon class="st0" points="135.8,171.3 129.7,174.7 119.1,180.7 113,184.1 116.4,190.2 131.8,218 135.2,224.1 141.3,220.7 
	152,214.7 158.1,211.3 154.7,205.2 139.2,177.4 "/>
<path class="st0" d="M7.8,260.1c5.5-12.6,14.1-23.5,24.9-31.7c0.7-9.4,5.9-18.2,14.4-22.9L351.7,36c4.2-2.4,9-3.6,13.8-3.6
	c10.3,0,19.9,5.6,24.9,14.6l21.1,37.9c-15.8,13.4-20.3,36.4-9.9,55c7.8,14,22.5,22.6,38.6,22.6c4.6,0,9.1-0.7,13.4-2.1l21.1,37.9
	c4.9,8.7,4.8,19.2-0.1,27.7c9.2,6.3,17,14.4,22.9,23.9c15.2-19.2,17.5-45.8,5.5-67.3l-24.1-43.3l-8.6-15.4l-3.3-5.8l-6,3l-15.7,7.8
	c-1.6,0.8-3.4,1.2-5.2,1.2c-4.2,0-8.1-2.3-10.2-6c-3-5.5-1.3-12.3,4.1-15.6l15-9.3l5.7-3.5l-3.3-5.8l-8.6-15.4l-24.1-43.3
	C408,12,387.6,0,365.5,0C355.2,0,345,2.7,336,7.7L31.3,177.2C17.1,185.1,6.8,198,2.4,213.7c-4.5,15.7-2.6,32.1,5.3,46.3L7.8,260.1z"
	/>
</svg>
