<svg xmlns="http://www.w3.org/2000/svg" viewBox="0 0 230 230"><defs><style>.cls-1{fill:#dfffdc;}.cls-2{fill:#8ecc87;}</style></defs><g id="レイヤー_2" data-name="レイヤー 2"><g id="レイヤー_1-2" data-name="レイヤー 1"><circle class="cls-1" cx="115" cy="115" r="115"/><path class="cls-2" d="M159.76,71c-4.31,3.82-9.6,7.93-14.74,9-9.55,1.94-19.82-2.53-27.7-1.34-.52.08-1,.18-1.5.26a40.6,40.6,0,0,0-4.26-.86,20.91,20.91,0,0,0-3.25-.24,63.13,63.13,0,0,0-9.29,1,61.07,61.07,0,0,1-9,.92,21.36,21.36,0,0,1-4.36-.41,18,18,0,0,1-6-2.67,50.19,50.19,0,0,1-6.11-4.76,9.84,9.84,0,0,0-3-1.83,9.41,9.41,0,0,0-3.33-.6,12.58,12.58,0,0,0-5.08,1.17A21,21,0,0,0,58,73.08a39,39,0,0,0-6.51,6.32,58.08,58.08,0,0,0-7.65,12.09,42.68,42.68,0,0,0-2.34,6.19,21.94,21.94,0,0,0-.9,5.83,11.68,11.68,0,0,0,.33,2.9,8.31,8.31,0,0,0,1.21,2.73,2.7,2.7,0,0,0,.61.65s1.28,1,2.63,2.31a25.34,25.34,0,0,1,2,2.07,8.68,8.68,0,0,1,1.2,1.72c.76,1.62,2.71,5.57,5.29,10,1.3,2.2,2.75,4.53,4.32,6.75.79,1.11,1.6,2.21,2.44,3.24a7.61,7.61,0,0,0,11,10.46l.22-.19a7.61,7.61,0,0,0,11.85,9.11l1.23-1.12a7.61,7.61,0,0,0,11.56,9.65l1.9-1.72a7.61,7.61,0,0,0,11.45,9.8l3.08-2.64.83.38,2.1,1.23h0a16,16,0,0,0,3.27,1.49,11.81,11.81,0,0,0,3.5.56,9.5,9.5,0,0,0,3.85-.8,9.68,9.68,0,0,0,3.31-2.46A10.18,10.18,0,0,0,132,165.3a10.15,10.15,0,0,0,3.47.61,10.18,10.18,0,0,0,10-8.22,10.55,10.55,0,0,0,2,.21,10.17,10.17,0,0,0,10.08-8.72,8.77,8.77,0,0,0,.88,0,12.49,12.49,0,0,0,4.87-1,11.53,11.53,0,0,0,4.09-2.89,13.49,13.49,0,0,0,2.44-4.12,13.68,13.68,0,0,0,.91-4.8,11.26,11.26,0,0,0-.15-1.82c5.86-6.52,9-17.39,10.31-20.24,1.55-3.3,7.4-8,7.4-8C194.61,97.25,171.22,60.85,159.76,71Zm4.37,68a7.34,7.34,0,0,1-1.29,2.24,5.52,5.52,0,0,1-1.92,1.32,6.58,6.58,0,0,1-2.49.52,4.46,4.46,0,0,1-1.39-.21l-.06,0-8.69-8.38a3,3,0,0,0-4.23,4.38l7,6.76a.84.84,0,0,0,.08.2,4.22,4.22,0,0,1,.43,1.85,4.08,4.08,0,0,1-2.45,3.75,4,4,0,0,1-1.66.36,4.09,4.09,0,0,1-2.71-1l-.18-.16-.1-.12-7.61-7.94a3,3,0,1,0-4.4,4.2l6.46,6.74a.2.2,0,0,0,0,.08,4.13,4.13,0,0,1,.59,2.14,4,4,0,0,1-1,2.72h0a4.27,4.27,0,0,1-1.41,1,4.18,4.18,0,0,1-1.66.34,4.06,4.06,0,0,1-2.73-1l-.12-.09-2.35-1.89-3.86-4.1a3,3,0,0,0-4.43,4.18l3.66,3.88a4.09,4.09,0,0,1,.58,2.09,4,4,0,0,1-1,2.71,3.58,3.58,0,0,1-1.23.94,3.33,3.33,0,0,1-1.38.27,5.43,5.43,0,0,1-1.66-.28,9.62,9.62,0,0,1-2-.91l0,0-1.08-.62a7.6,7.6,0,0,0-10.14-11.32l.57-.51a7.61,7.61,0,1,0-10.09-11.39l-1.87,1.68a7.6,7.6,0,0,0-11.44-9.8l-2.48,2.25a7.61,7.61,0,0,0-12-8.77l-5.24,4.65c-.66-.83-1.33-1.71-2-2.63a100.48,100.48,0,0,1-5.76-9.35c-1.6-2.92-2.79-5.35-3.31-6.46a11.84,11.84,0,0,0-1-1.63,21.46,21.46,0,0,0-2-2.49A37.38,37.38,0,0,0,48,106.26l-1-.87a2.56,2.56,0,0,1-.16-.45,6,6,0,0,1-.15-1.42,15,15,0,0,1,.52-3.57,37.46,37.46,0,0,1,3.25-8.08A49.11,49.11,0,0,1,59,80.26a22.33,22.33,0,0,1,4.59-3.57,10.58,10.58,0,0,1,2-.87,5.41,5.41,0,0,1,1.61-.27,3.44,3.44,0,0,1,1.18.2,3.89,3.89,0,0,1,1.11.7,56.88,56.88,0,0,0,6.86,5.33,24.23,24.23,0,0,0,8.11,3.51,28.08,28.08,0,0,0,5.58.52,64.34,64.34,0,0,0,9.92-1l2.29-.35a60.5,60.5,0,0,0-7,5.73c-6.82,6.37-12.71,14.14-16,17.68s2.8,9.65,12.46,6.84a24.52,24.52,0,0,0,13.82-10l12.12-4.35,12,2.75,29.09,26.19,5,4.86.1.08a1.82,1.82,0,0,1,.49.76,4,4,0,0,1,.22,1.39A7.46,7.46,0,0,1,164.13,139.05Z"/></g></g></svg>