<?xml version="1.0" encoding="utf-8"?>
<!-- Generator: Adobe Illustrator 25.4.1, SVG Export Plug-In . SVG Version: 6.00 Build 0)  -->
<svg version="1.1" id="_x32_" xmlns="http://www.w3.org/2000/svg" xmlns:xlink="http://www.w3.org/1999/xlink" x="0px" y="0px"
	 viewBox="0 0 475.7 512" style="enable-background:new 0 0 475.7 512;" xml:space="preserve">
<style type="text/css">
	.st0{fill:#8A8A8A;}
</style>
<path class="st0" d="M428.8,139.3l-39.4-0.2c34.8-21.3,50.3-62.6,34.9-96.5C412.4,16.6,384.6,0,355.2,0c-12.5,0-25.3,3-37.3,9.5
	c-26.4,14.4-46.8,34.5-62.4,55c-0.3,0.4-0.6,0.7-0.8,1.1c-2.4,3.2-4.7,6.3-6.8,9.5c-0.9,1.3-1.8,2.5-2.6,3.8
	c-0.9,1.4-1.8,2.8-2.7,4.2c-1.6,2.5-3.2,4.9-4.8,7.5c-16.6-28.2-42.3-60.6-80-81.1C145.8,3,133,0,120.5,0c-29.4,0-57.2,16.6-69,42.6
	c-12.9,28.3-4.2,61.6,19.1,84.3c4.7,4.6,9.9,8.8,15.7,12.5H0v106.8c0,2.2,1.7,3.9,3.9,3.9H58v30v175.2c0,31.3,25.4,56.7,56.7,56.7
	h93.5h59.4H361c31.3,0,56.7-25.4,56.7-56.7V280.1v-30h54.1c2.2,0,3.9-1.7,3.9-3.9V139.3H428.8z M341.2,52.3c4.4-2.4,9.1-3.6,14-3.6
	c10.6,0,21,5.9,24.7,14.1c3.2,7,0.9,14.2-0.7,17.9c-3.7,8.3-10.9,15.3-20,19.5c-18,8.1-39.2,12.3-63,12.3c-4.3,0-8.4-0.2-12.5-0.4
	c-0.6-0.1-1.1-0.1-1.7-0.2C295.1,90.5,314.3,67,341.2,52.3z M95.9,62.9c3.7-8.1,14.1-14.1,24.7-14.1c4.9,0,9.6,1.2,14,3.6
	C157.8,65,175.3,84.2,188,103c2,2.9,3.9,5.9,5.7,9.1c-4.6,0.2-9.3,0.4-14.2,0.4c-23.9,0-45.1-4.1-63-12.3
	C107.4,96,100.2,89,96.6,80.8C95,77.1,92.7,69.8,95.9,62.9z M36.9,213.2v-37h49.4h121.9v37H36.9z M208.2,475.1h-93.5
	c-11,0-19.9-8.9-19.9-19.9V250.1h113.4V475.1z M380.8,455.3c0,11-8.9,19.9-19.9,19.9h-93.3V250.1h113.2V455.3z M438.8,213.2H267.6
	v-37.6l121.6,0.4l39.4,0.2h0.1h0.1h10L438.8,213.2L438.8,213.2z"/>
</svg>
