<svg xmlns="http://www.w3.org/2000/svg" width="180" height="180" viewBox="0 0 180 180">
  <g id="グループ_514" data-name="グループ 514" transform="translate(-98 -212)">
    <g id="グループ_508" data-name="グループ 508" transform="translate(-1651.479 -885.389)">
      <path id="パス_6264" data-name="パス 6264" d="M1845.676,1133.2a2.581,2.581,0,0,0,2.582-2.581v-15.49a2.585,2.585,0,0,1,2.582-2.582h72.285a2.584,2.584,0,0,1,2.582,2.582v7.745H1856a2.582,2.582,0,1,0,0,5.163h69.7v7.745a2.582,2.582,0,0,0,5.163,0v-20.653a7.754,7.754,0,0,0-7.745-7.745H1850.84a7.754,7.754,0,0,0-7.745,7.745v15.49A2.581,2.581,0,0,0,1845.676,1133.2Z" transform="translate(-40.474)" fill="#444"/>
      <path id="パス_6265" data-name="パス 6265" d="M1887.814,1255.053a2.581,2.581,0,0,0-2.582,2.581v10.327h-69.7a2.582,2.582,0,1,0,0,5.163h69.7v5.164a2.584,2.584,0,0,1-2.582,2.581h-72.285a2.584,2.584,0,0,1-2.582-2.581V1199.06c1.016-1.485,3.556-5.24,6.069-9.308,6.062-9.813,6.839-13.026,6.839-14.729,0-11.231-4.852-12.908-7.745-12.908-1.364,0-4.2,0-21.932,20.754a8.994,8.994,0,0,0-1.513,2.5c-3.818,9.536-12.7,32.4-12.7,38.7v49.051c0,5.681-7.042,15.665-9.755,19.033a2.582,2.582,0,0,0,4.019,3.241c1.115-1.383,10.9-13.758,10.9-22.274v-49.051c0-4.137,6.192-21.454,12.328-36.78a3.889,3.889,0,0,1,.645-1.07c9.591-11.228,16.319-17.892,18.255-18.918,1.426.306,2.333,3.267,2.333,7.719-.01,2.327-6.443,13.13-12.446,21.76l-.008.013c-.035.052-.068.106-.1.16-.012.02-.025.039-.035.058-.031.055-.058.113-.084.171-.01.02-.02.04-.029.06-.021.049-.038.1-.056.15-.01.03-.023.059-.032.089s-.018.068-.027.1-.028.1-.038.146c0,.023-.007.047-.011.07-.011.061-.021.122-.028.184,0,.023,0,.047,0,.071,0,.062-.009.124-.009.185v80.046a7.753,7.753,0,0,0,7.745,7.744h38.925c-4.525,3.051-9.067,5.419-9.134,5.453a2.582,2.582,0,1,0,2.376,4.584c.4-.208,9.495-4.948,15.292-10.037h24.825a7.754,7.754,0,0,0,7.745-7.744v-20.653A2.581,2.581,0,0,0,1887.814,1255.053Z" transform="translate(0 -28.91)" fill="#444"/>
      <path id="パス_6266" data-name="パス 6266" d="M1927.147,1128.97a2.581,2.581,0,1,0,0-5.163h-10.326a2.581,2.581,0,1,0,0,5.163Z" transform="translate(-78.057 -8.673)" fill="#444"/>
      <path id="パス_6267" data-name="パス 6267" d="M1963.183,1128.97a2.581,2.581,0,1,0,0-5.163H1960.6a2.581,2.581,0,1,0,0,5.163Z" transform="translate(-101.186 -8.673)" fill="#444"/>
      <path id="パス_6268" data-name="パス 6268" d="M2035.981,1230.475c0-2.631-1.422-5.881-4.226-9.677a11.765,11.765,0,0,0,1.645-5.813c0-3.782-3.054-8.277-5.2-10.967,2.9-2.324,5.2-5.688,5.2-9.363,0-5.162-3.619-10.649-10.326-10.649-5.99,0-10.327,7.71-10.327,12.908,0,3.637.917,6.451,2.582,8.216v4.14a30.2,30.2,0,0,0-2.582,10.879c0,4.331,1.823,6.239,3.764,7.08-2.175,3.684-3.764,8.113-3.764,10.991,0,4.941,2.372,6.728,4.588,7.375a14.789,14.789,0,0,0-2.006,6.823c0,6.669,4.172,9.036,7.745,9.036,6.273,0,10.326-5.6,10.326-14.254a13.557,13.557,0,0,0-1.919-7.382C2034.119,1236.912,2035.981,1233.44,2035.981,1230.475Zm-9.552,7.038a2.584,2.584,0,0,0-.428.459,12.177,12.177,0,0,1-4.528,2.691,2.559,2.559,0,0,0-.278.065,3.691,3.691,0,0,1-.7.073,5,5,0,0,1-2.064-.282c-.239-.168-.517-.871-.517-2.3,0-2.269,2.006-7.3,4.47-10.5a13.222,13.222,0,0,0,5.927-2.856c1.6,2.34,2.511,4.351,2.511,5.614,0,1.916-1.818,4.646-4.076,6.819A2.667,2.667,0,0,0,2026.429,1237.513Zm1.807-22.528a7.134,7.134,0,0,1-1.479,4.076,2.554,2.554,0,0,0-.394.5,8.434,8.434,0,0,1-5.424,3.144c-.058,0-.116.007-.174.012-.092.005-.183.01-.274.01a5.052,5.052,0,0,1-2.067-.279c-.237-.167-.515-.87-.515-2.3,0-4.231,2.31-9.172,2.332-9.219a2.579,2.579,0,0,0,.25-1.108v-2.582a9.508,9.508,0,0,0,3.171-.625C2025.848,1209.245,2028.236,1212.9,2028.236,1214.985Zm-5.163-25.816c5.1,0,5.163,5.431,5.163,5.486,0,2.582-2.736,5.257-5.164,6.578-.022.012-.044.023-.065.036a5.848,5.848,0,0,1-2.516.808c-1.713,0-2.581-1.737-2.581-5.163C2017.91,1193.584,2020.853,1189.169,2023.073,1189.169Zm0,67.122c-.706,0-2.582,0-2.582-3.873,0-2.427,1.921-5.434,3.027-7.014a16.645,16.645,0,0,0,3.993-2.086,8.918,8.918,0,0,1,.725,3.881C2028.236,1249.333,2027.864,1256.291,2023.073,1256.291Z" transform="translate(-130.096 -40.474)" fill="#444"/>
      <path id="パス_6269" data-name="パス 6269" d="M1927.147,1172.588a2.582,2.582,0,0,0-2.581,2.581v17.92l-5.92-5.919a2.581,2.581,0,0,0-3.651,3.651l10.325,10.325c.061.061.125.118.192.173.027.022.055.041.082.061s.079.061.121.089.07.043.105.064.073.045.111.066.075.037.112.054.076.038.117.054.074.027.111.041.084.031.127.044.076.02.114.029.086.023.131.032.09.014.135.021.076.013.114.016c.085.008.17.013.255.013s.17,0,.255-.013c.039,0,.076-.011.114-.016s.091-.012.135-.021.087-.021.131-.032.077-.018.114-.029.084-.029.126-.044.075-.026.112-.041.078-.036.116-.054.076-.035.113-.055.074-.043.11-.065.072-.041.106-.065.081-.058.121-.088.056-.04.082-.062c.067-.055.131-.112.192-.173l10.325-10.325a2.581,2.581,0,0,0-3.651-3.651l-5.919,5.919v-17.92A2.582,2.582,0,0,0,1927.147,1172.588Z" transform="translate(-78.058 -34.443)" fill="#444"/>
      <g id="グループ_507" data-name="グループ 507" transform="translate(1820.007 1171.362)">
        <path id="パス_6270" data-name="パス 6270" d="M1933.6,1253.793h-6.784a7.893,7.893,0,0,0-.142-6.256,7.838,7.838,0,0,0-13.11-1.733l-5.567,6.634-5.563-6.629a7.836,7.836,0,0,0-13.117,1.735,7.894,7.894,0,0,0-.139,6.249h-6.783a2.44,2.44,0,0,0-2.44,2.44v10.019a2.44,2.44,0,0,0,2.44,2.44H1933.6a2.44,2.44,0,0,0,2.44-2.44v-10.019A2.44,2.44,0,0,0,1933.6,1253.793Zm-16.295-4.857a2.959,2.959,0,0,1,4.939.646,3,3,0,0,1,.049,2.384,2.428,2.428,0,0,0-.008,1.828h-9.056Zm-7.3,9.737v5.139h-4.026v-5.139Zm-16.309-6.707a2.993,2.993,0,0,1,.045-2.376,2.958,2.958,0,0,1,4.946-.65l4.073,4.853h-9.057A2.429,2.429,0,0,0,1893.7,1251.966Zm-8.867,6.707H1901.1v5.139h-16.271Zm46.327,5.139h-16.271v-5.139h16.271Z" transform="translate(-1879.952 -1243.003)" fill="#ffce00"/>
        <path id="パス_6271" data-name="パス 6271" d="M1933.865,1304.194a2.44,2.44,0,0,0-2.44,2.44v19.559H1917.38v-19.559a2.44,2.44,0,1,0-4.879,0v19.559h-4.026v-19.559a2.44,2.44,0,1,0-4.88,0v19.559h-14.044v-19.559a2.44,2.44,0,1,0-4.879,0v22a2.44,2.44,0,0,0,2.44,2.44h46.753a2.44,2.44,0,0,0,2.44-2.44v-22A2.44,2.44,0,0,0,1933.865,1304.194Z" transform="translate(-1882.446 -1275.328)" fill="#ffce00"/>
      </g>
    </g>
    <rect id="長方形_677" data-name="長方形 677" width="180" height="180" transform="translate(98 212)" fill="none"/>
  </g>
</svg>
