<?xml version="1.0" encoding="utf-8"?>
<!-- Generator: Adobe Illustrator 25.4.1, SVG Export Plug-In . SVG Version: 6.00 Build 0)  -->
<svg version="1.1" xmlns="http://www.w3.org/2000/svg" xmlns:xlink="http://www.w3.org/1999/xlink" x="0px" y="0px"
	 viewBox="0 0 512 512" style="enable-background:new 0 0 512 512;" xml:space="preserve">
<style type="text/css">
	.st0{fill:#4B4B4B;}
	.st1{display:none;}
	.st2{display:inline;fill:#4B4B4B;}
</style>
<g id="_x32_">
	<g>
		<path class="st0" d="M16.3,512h479.4c0-76.5-35.9-144.7-91.8-188.6c-18.8,18.2-40.6,32.6-64.7,42.8
			c-26.1,11.1-53.9,16.7-82.4,16.7h-1.7c-28.6,0-56.3-5.6-82.4-16.7c-24.1-10.2-45.8-24.6-64.7-42.8C52.2,367.3,16.3,435.4,16.3,512
			z"/>
		<path class="st0" d="M427.7,171.8C427.7,77,350.8,0,256,0C161.2,0,84.3,76.9,84.3,171.7c0,51.4,22.6,97.5,58.3,129
			c0,0-0.1,0-0.1,0c30.2,26.2,69.5,42.1,112.6,42.1h1.7c43.1,0,82.5-15.9,112.6-42.1c0,0,0,0-0.1,0
			C405.2,269.3,427.7,223.2,427.7,171.8z"/>
	</g>
</g>
<g id="レイヤー_2" class="st1">
	<path class="st2" d="M775.3,1078.2h479.4c0-91.3-51.1-170.7-126.2-211.2c-55.4-38.5-65.6-10.4-61.6,34.7
		c69.5-22,119.8-87,119.8-163.7c0-94.8-76.9-171.8-171.7-171.8c-94.8,0-171.7,76.9-171.7,171.7c0,51.4,22.6,97.5,58.3,129
		C826.4,907.4,775.3,986.8,775.3,1078.2z"/>
</g>
</svg>
