<?xml version="1.0" encoding="utf-8"?>
<!-- Generator: Adobe Illustrator 25.4.1, SVG Export Plug-In . SVG Version: 6.00 Build 0)  -->
<svg version="1.1" id="_x31_0" xmlns="http://www.w3.org/2000/svg" xmlns:xlink="http://www.w3.org/1999/xlink" x="0px" y="0px"
	 viewBox="0 0 512 512" style="enable-background:new 0 0 512 512;" xml:space="preserve">
<style type="text/css">
	.st0{fill:#C9C9C9;}
</style>
<g>
	<path class="st0" d="M45.9,488.2c58.6,15,131.4,23.8,210.2,23.8c78.7,0,151.4-8.9,209.9-23.8c10.1-2.6,16.3-12.5,14.5-22.7
		c-0.4-2.4-1.1-4.7-1.6-7c-0.1-0.4-0.2-0.9-0.3-1.3c-0.6-2.4-1-4.9-1.6-7.3c-1.1-4.2-2.3-8.2-3.8-12c-0.6-1.9-1.4-3.7-2.1-5.5
		c0-0.1-0.1-0.2-0.1-0.4c-0.8-2.1-1.5-4.2-2.4-6.2c-7.4-17.4-16.3-30.6-23.4-37.1c-9.1-8.4-50.4-29.4-85.6-47.3
		c-25.7-13.2-40.2-24.6-44.3-28.4v-22.2v-12.2c1.9-0.7,3.8-2.1,5.5-4c0.3-0.3,0.6-0.6,0.9-1c4.9-5.5,8.9-11.8,10.9-17.6
		c0.2-0.7,0.5-1.4,0.7-2.2c4.4-12.5,7.8-26.6,8.4-30.6c0.1-0.4,0.1-0.7,0.2-1c1.8,0.6,3.6,0.8,5.1,0.8c18.6,0,26.2-38,27.2-48
		c1.1-10.1-7.8-17-11.1-19.6c0.7-1.6,1.6-4,2.5-6.8c0.1-0.2,0.2-0.4,0.2-0.6c1.1-3.4,2.7-8.1,4.2-14.6c0.9-3.8,1.7-8.4,2.4-13.8
		c0.5-3.3,0.6-6.8,0.4-10.2c-0.2-7.2-1.8-14.6-4.4-21.4c-2.2-5.9-5.2-11.4-8.9-15.8l-0.1-0.1c-2.6-3-5.4-6.2-8.5-9
		c-12-11.6-26.2-21-32.8-21c-13.4-24.2-30.6-39.8-62.5-42c-1.9-0.1-3.8-0.1-5.9-0.2h-0.4c-24,0-64.5,20.6-85.1,48.8
		c0,0.1,0,0.1,0,0.1c-2.1,2.8-3.9,5.7-5.5,8.6c-2.7,5-5.2,9.6-7.3,14c-3.4,7.1-5.9,13.8-7.5,20.4c-1,3.1-1.6,6.3-1.9,9.6
		c-1.4,9.3-1.1,19.1,0.7,31v0.1c0.7,4.9,1.7,10.2,3,15.8c0.1,0.1,0.1,0.2,0.1,0.2c1,2.8,1.8,5.2,2.6,6.8c-3.2,2.6-11.1,7-10.2,17
		c1,10.1,7.5,50.6,26.1,50.6c1.7,0,3.4-0.2,5.3-0.8l0,0c0.3,3.2,2,12.3,5.4,21.6c1,2.7,2.1,6.2,3.3,9.8c0.2,0.7,0.5,1.4,0.7,2.1
		c2,5.8,5.8,12,10.5,17.4c0.5,0.6,1,1.1,1.5,1.7c1.8,1.8,3.6,3.2,5.5,3.9v12V313c-4.1,3.8-18.6,15.3-44.2,28.4
		c-35.2,18-76.3,39-85.4,47.3c-7.1,6.4-16.1,19.7-23.5,37.1c-1.6,3.8-3.2,7.8-4.6,12.1c-1.4,3.8-2.6,7.8-3.7,12
		c-1.4,5-2.6,10.2-3.5,15.6C29.7,475.8,35.9,485.6,45.9,488.2z"/>
</g>
</svg>
